# Alias OBJ Model File
# Exported from SketchUp, (c) 2000-2012 Trimble Navigation Limited
# File units = feet

mtllib Untitled.mtl

g Mesh1 n0b0_1 Group1 Model

usemtl m1
v -0.825824 -7 6.89727
vt 67.2 -11.8794
vn 0 -0.92388 0.382683
v -12.0258 -5.6 8.29727
vt -67.2 11.8794
vn -0.292403 -0.453374 0.841993
v -12.0258 -7 6.89727
vt -67.2 -11.8794
vn -0.453374 -0.841993 0.292403
f 1/1/1 2/2/2 3/3/3

vn 0.367001 -0.854763 0.367001
v -0.825824 -5.6 8.29727
vt 67.2 11.8794
vn 0.367001 -0.367001 0.854763
f 2/2/2 1/1/4 4/4/5

vt 0 -13.7171
v 0.574176 -5.6 6.89727
vt 11.8794 6.85857
vn 0.841993 -0.453374 0.292403
vt -11.8794 6.85857
f 1/5/4 5/6/6 4/7/5

v -0.825824 -7 -4.30273
vn 0.453374 -0.841993 -0.292403
f 6/1/7 5/2/6 1/3/4

v 0.574176 -5.6 -4.30273
vn 0.854763 -0.367001 -0.367001
f 5/2/6 6/1/7 7/4/8

v -0.825824 -5.6 -5.70273
vn 0.367001 -0.367001 -0.854763
f 8/6/9 7/7/8 6/5/7

v -0.825824 5.6 -5.70273
vt 11.8794 67.2
vn 0.453374 0.292403 -0.841993
vt -11.8794 -67.2
vt 11.8794 -67.2
f 9/8/10 7/9/8 8/10/9

vn 0.92388 0 -0.382683
v 0.574176 5.6 -4.30273
vt -11.8794 67.2
vn 0.841993 0.453374 -0.292403
f 7/9/11 9/8/10 10/11/12

v -0.825824 7 -4.30273
vt 0 13.7171
vn 0.367001 0.854763 -0.367001
vt -11.8794 -6.85857
vt 11.8794 -6.85857
f 11/12/13 10/13/12 9/14/10

v -0.825824 7 6.89727
vn 0.453374 0.841993 0.292403
f 12/2/14 10/1/12 11/4/13

v 0.574176 5.6 6.89727
vn 0.854763 0.367001 0.367001
f 10/1/12 12/2/14 13/3/15

v -0.825824 5.6 8.29727
vn 0.292403 0.453374 0.841993
vt 11.8794 -6.85856
f 14/13/16 13/15/15 12/12/14

vn 0.382684 0 0.923879
f 4/9/17 13/8/15 14/11/16

vn 0.92388 2.17235e-008 0.382683
f 13/8/18 4/9/5 5/10/6

vt 0.993011 0.506989
vt 0.506958 0.993042
vt 0.506958 0.506989
f 7/16/8 13/17/18 5/18/6

vt 0.993011 0.993042
f 13/17/15 7/16/11 10/19/12

v -12.0258 5.6 8.29727
vt 0.00506592 0.994934
vn -0.367001 0.367001 0.854763
vt 0.494904 0.505096
vt 0.494904 0.994934
f 15/20/19 4/21/17 14/22/16

vn -0.382683 -2.17235e-008 0.92388
vt 0.00506592 0.505096
f 4/21/5 15/20/20 2/23/2

v -13.4258 -5.6 6.89727
vn -0.841993 -0.292403 0.453374
f 15/8/20 16/9/21 2/10/2

v -13.4258 5.6 6.89727
vn -0.854763 0.367001 0.367001
f 16/9/21 15/8/19 17/11/22

v -12.0258 7 6.89727
vt 2.6974e-005 13.7171
vn -0.367001 0.854763 0.367001
vt -11.8794 -6.85856
f 18/24/23 17/25/22 15/15/19

v -12.0258 7 -4.30273
vn -0.453374 0.841993 -0.292403
f 19/2/24 17/1/22 18/4/23

vn -0.92388 0.382683 -0
v -13.4258 5.6 -4.30273
vn -0.841993 0.292403 -0.453374
f 17/1/25 19/2/24 20/3/26

v -12.0258 5.6 -5.70273
vn -0.367001 0.367001 -0.854763
f 21/13/27 20/14/26 19/12/24

v -12.0258 -5.6 -5.70273
vn -0.453374 -0.292403 -0.841993
f 22/9/28 20/8/26 21/11/27

v -13.4258 -5.6 -4.30273
vn -0.854763 -0.367001 -0.367001
f 20/8/26 22/9/28 23/10/29

v -12.0258 -7 -4.30273
vt -2.6974e-005 -13.7171
vn -0.367001 -0.854763 -0.367001
vt 11.8794 6.85856
vt -11.8794 6.85856
f 24/26/30 23/27/29 22/28/28

f 3/1/3 23/2/29 24/3/30

vn -0.923879 -0.382684 -2.17235e-008
f 23/2/31 3/1/3 16/4/21

vt 11.8794 6.85858
vt -11.8794 6.85858
vt -2.15792e-005 -13.7171
f 2/29/2 16/30/21 3/31/3

vt 0.496826 0.00317383
vt 0.00314331 0.496857
vt 0.00314331 0.00317383
f 17/32/22 23/33/31 16/34/21

vt 0.496826 0.496857
f 23/33/29 17/32/25 20/35/26

vt 0.00506592 0.00509644
vt 0.494904 0.494934
vt 0.00506592 0.494934
f 24/36/30 1/37/1 3/38/3

vn 2.17235e-008 -0.92388 -0.382683
vt 0.494904 0.00509644
f 1/37/4 24/36/32 6/39/7

f 24/1/32 8/2/9 6/3/7

vn 0 -0.382683 -0.92388
f 8/2/33 24/1/30 22/4/28

vt 0.493652 0.506348
vt 0.00631714 0.993683
vt 0.00631714 0.506348
f 21/40/27 8/41/33 22/42/28

vn 0 0.382683 -0.92388
vt 0.493652 0.993683
f 8/41/9 21/40/34 9/43/10

f 21/1/34 11/2/13 9/3/10

vn 0 0.92388 -0.382683
f 11/2/35 21/1/27 19/4/24

vt 0.995819 0.504181
vt 0.50415 0.99585
vt 0.50415 0.504181
f 18/44/23 11/45/35 19/46/24

vn 2.17235e-008 0.92388 0.382683
vt 0.995819 0.99585
f 11/45/13 18/44/36 12/47/14

f 18/2/36 14/1/16 12/4/14

f 14/1/16 18/2/23 15/3/19

g Mesh2 n0b0_2_1 Group1 Model

usemtl m2
v -0.880823 -7 6.89727
vt 0.899963 0.550018
v -12.0808 -5.6 8.29727
vt 0.0999756 0.5
v -12.0808 -7 6.89727
vt 0.0999756 0.550018
f 25/48/1 26/49/2 27/50/3

v -0.880823 -5.6 8.29727
vt 0.899963 0.5
f 26/49/2 25/48/4 28/51/5

v 0.519176 -5.6 6.89727
vt 1 0.550018
f 25/48/4 29/52/6 28/51/5

v -0.880823 -7 -4.30273
vt 0.899963 0.950012
f 30/53/7 29/52/6 25/48/4

v 0.519176 -5.6 -4.30273
vt 1 0.950012
f 29/52/6 30/53/7 31/54/8

v -0.880823 -5.6 -5.70273
vt 0.899963 1
f 32/55/9 31/54/8 30/53/7

v -0.880823 5.6 -5.70273
f 33/53/10 31/52/8 32/48/9

v 0.519176 5.6 -4.30273
f 31/52/11 33/53/10 34/54/12

v -0.880823 7 -4.30273
f 35/53/13 34/54/12 33/55/10

v -0.880823 7 6.89727
f 36/48/14 34/54/12 35/53/13

v 0.519176 5.6 6.89727
f 34/54/12 36/48/14 37/52/15

v -0.880823 5.6 8.29727
f 38/51/16 37/52/15 36/48/14

vn 0.382683 0 0.92388
f 28/48/37 37/54/15 38/53/16

vn 0.92388 0 0.382683
f 37/54/38 28/48/5 29/52/6

vt 0.0999756 0.950012
f 31/48/8 37/56/38 29/50/6

f 37/56/15 31/48/11 34/53/12

v -12.0808 5.6 8.29727
f 39/56/19 28/48/37 38/53/16

vn -0.382683 0 0.92388
f 28/48/5 39/56/39 26/50/2

v -13.4808 -5.6 6.89727
vt 0 0.550018
f 39/56/39 40/57/21 26/50/2

vt 6.93889e-018 0.550018
v -13.4808 5.6 6.89727
vt 6.93889e-018 0.950012
f 40/58/21 39/56/19 41/59/22

v -12.0808 7 6.89727
vt -4.16334e-017 0.550018
f 42/50/23 41/60/22 39/49/19

v -12.0808 7 -4.30273
f 43/56/24 41/57/22 42/50/23

v -13.4808 5.6 -4.30273
vt 0 0.950012
f 41/57/25 43/56/24 44/61/26

v -12.0808 5.6 -5.70273
vt 0.0999756 1
vt 6.93889e-017 0.950012
f 45/62/27 44/63/26 43/56/24

v -12.0808 -5.6 -5.70273
f 46/52/28 44/53/26 45/54/27

v -13.4808 -5.6 -4.30273
f 44/53/26 46/52/28 47/48/29

v -12.0808 -7 -4.30273
vt -5.55112e-017 0.950012
f 48/56/30 47/64/29 46/62/28

f 27/50/3 47/61/29 48/56/30

vn -0.92388 -0.382683 -0
f 47/61/40 27/50/3 40/57/21

f 26/49/2 40/57/21 27/50/3

f 41/56/22 47/48/40 40/50/21

f 47/48/29 41/56/25 44/53/26

f 48/56/30 25/48/1 27/50/3

vn 0 -0.92388 -0.382683
f 25/48/4 48/56/41 30/53/7

f 48/56/41 32/55/9 30/53/7

f 32/55/33 48/56/30 46/62/28

f 45/56/27 32/48/33 46/50/28

f 32/48/9 45/56/34 33/53/10

f 45/62/34 35/53/13 33/55/10

f 35/53/35 45/62/27 43/56/24

f 42/50/23 35/53/35 43/56/24

vn 0 0.92388 0.382683
f 35/53/13 42/50/42 36/48/14

f 42/50/42 38/51/16 36/48/14

f 38/51/16 42/50/23 39/49/19

g Mesh3 n1b1_1_1 Group1 Model

usemtl m3
v 0.519176 7 1.29727
vt 1 1
vn 0 0 1
v -13.4808 -7 1.29727
vt 5.55112e-017 5.55112e-017
v 0.519176 -7 1.29727
vt 1 5.55112e-017
f 49/65/43 50/66/43 51/67/43

v -13.4808 7 1.29727
vt 5.55112e-017 1
f 50/66/43 49/65/43 52/68/43

